<?xml version="1.0" encoding="utf-8"?>
<!-- Generator: Adobe Illustrator 16.0.4, SVG Export Plug-In . SVG Version: 6.00 Build 0)  -->
<!DOCTYPE svg PUBLIC "-//W3C//DTD SVG 1.1//EN" "http://www.w3.org/Graphics/SVG/1.1/DTD/svg11.dtd">
<svg version="1.1" id="Layer_1" xmlns="http://www.w3.org/2000/svg" xmlns:xlink="http://www.w3.org/1999/xlink" x="0px" y="0px"
	 width="720px" height="358px" viewBox="0 0 720 358" enable-background="new 0 0 720 358" xml:space="preserve">
<g>
	<path d="M50.506,63.267C54.385,68.657,61.823,61.225,50.506,63.267L50.506,63.267z"/>
	<path d="M519.638,174.377c-2.202,3.559-2.187,7.902,0.042,11.905c2.668,4.787,7.881,7.997,12.977,7.997
		c0.295,0,0.584-0.006,0.881-0.027l0.533-0.158l1.25-0.729c1.093-0.62,2.188-1.24,3.218-1.942c3.186-2.941,2.821-7.957,0.739-10.98
		c-1.492-1.924-3.726-2.43-5.691-2.866c-2.768-0.626-4.348-1.093-4.691-3.662l-0.113-0.821l-0.816-0.209
		c-1.029-0.26-2.12-0.397-3.124-0.397c-1.506,0-3.573,0.288-4.996,1.642L519.638,174.377z M521.65,175.819
		c0.937-0.776,2.908-1.058,4.967-0.697c0.883,3.624,3.934,4.304,6.432,4.851c1.715,0.383,3.338,0.744,4.232,1.916
		c1.468,2.127,1.729,5.73-0.282,7.604c-0.822,0.552-1.866,1.13-2.896,1.724l-1.018,0.592c-4.327,0.188-8.924-2.576-11.253-6.737
		C520.797,183.223,519.422,179.581,521.65,175.819z"/>
	<path d="M417.951,189.493c-1.51,3.912-0.133,7.854,3.889,11.119l0.23,0.188l0.303,0.062c1.258,0.219,2.922,0.487,4.535,0.487
		c4.598,0,6.307-2.185,6.899-4.141c1.529-1.418,2.243-2.955,2.103-4.573c-0.305-3.609-4.782-6.33-7.752-8.13l-0.866-0.434
		c-3.283-0.571-5.603,1.62-7.537,3.562c-0.487,0.483-0.972,0.967-1.458,1.393L417.951,189.493z M420.043,190.598
		c0.455-0.414,0.906-0.867,1.363-1.322c1.664-1.654,3.238-3.182,5.293-2.941l0.273,0.171c2.398,1.462,6.424,3.9,6.631,6.339
		c0.076,0.928-0.436,1.873-1.58,2.857l-0.283,0.241l-0.086,0.359c-0.285,1.171-1.078,2.723-4.74,2.723
		c-1.318,0-2.7-0.202-3.83-0.395C420.971,196.839,418.852,194.055,420.043,190.598z"/>
	<path d="M301.384,196.562l0.188,0.346c1.776,2.217,5.166,3.65,8.631,3.65c2.964,0,5.443-1.025,6.896-2.853
		c1.42-0.647,2.447-1.887,2.9-3.526c0.634-2.315,0.062-5.07-1.434-6.849l-0.232-0.296l-0.365-0.123
		c-4.223-1.434-9.611-1.428-14.061,0.006C300.422,189.053,300.091,193.352,301.384,196.562z M305.05,189.363
		c3.183-0.943,8.034-1.122,11.642,0c0.743,1.102,1.034,2.763,0.677,4.078c-0.271,0.959-0.807,1.58-1.584,1.854l-0.414,0.146
		l-0.262,0.358c-0.888,1.287-2.68,2.025-4.905,2.025c-2.535,0-5.069-0.986-6.357-2.477
		C303.068,193.27,303.227,190.516,305.05,189.363z"/>
	<path d="M470.477,183.715c-0.01,0.055-0.064,0.09-0.064,0.155l0.014,2.11l0.206,0.304c0.488,0.729,0.853,1.632,1.241,2.59
		c0.296,0.724,0.592,1.446,0.943,2.106l0.193,0.276c2.156,2.302,4.957,3.265,7.729,3.265c2.527,0,5.039-0.791,7.047-2.105
		c3.393-2.22,6.195-6.561,3.869-12.038l-0.262-0.387c-0.558-0.558-1.059-1.173-1.561-1.788l-0.23-0.29l-0.348-0.11
		c-2.729-0.881-5.318-0.388-7.794,0.084c-0.486,0.094-0.972,0.172-1.462,0.254c-0.309-0.416-0.646-0.819-0.867-1.254l-0.148-0.306
		l-0.295-0.161c-2.201-1.268-4.728-0.951-6.625,0.812C470.223,178.955,469.665,181.486,470.477,183.715z M472.849,184.451
		c2.681-0.936,5.13-2.445,6.794-3.812c0.033,0,0.059,0.033,0.1,0.021c0.72-0.1,1.428-0.225,2.147-0.367
		c2.181-0.41,4.24-0.775,6.273-0.247c0.43,0.515,0.86,1.03,1.325,1.501c2.004,5.041-1.818,8.029-3.049,8.83
		c-3.246,2.135-8.353,2.576-11.539-0.663c-0.283-0.563-0.517-1.155-0.764-1.749c-0.379-0.924-0.755-1.854-1.275-2.715
		L472.849,184.451z M473.554,178.819c1.091-1.03,2.472-1.277,3.793-0.657c0.234,0.43,0.536,0.793,0.818,1.172
		c-1.479,1.168-3.533,2.42-5.792,3.229C472.042,181.09,472.642,179.678,473.554,178.819z"/>
	<path d="M360.135,192.855c-0.475,2.956,0.414,5.703,2.412,8.032c2.211,2.549,5.413,4.147,8.377,4.147c0,0,0,0,0.006,0
		c2.831,0,5.202-1.434,6.633-4.024l0.146-0.397c0.402-2.129-0.09-4.932-2.066-6.619c-0.816-1.938-2.236-3.109-3.609-4.266
		l-1.172-0.909c-1.063-0.448-2.252-0.688-3.41-0.688C364.131,188.131,361.259,189.99,360.135,192.855z M362.683,193.546
		c0.808-1.929,2.991-2.716,4.753-2.716c0.746,0,1.5,0.139,2.174,0.4l0.687,0.578c1.298,1.067,2.419,2.012,2.94,3.457l0.143,0.388
		l0.331,0.248c1.219,0.895,1.582,2.656,1.386,3.997c-0.969,1.61-2.374,2.437-4.186,2.437c-2.16,0-4.65-1.268-6.338-3.21
		C363.098,197.39,362.422,195.42,362.683,193.546z"/>
	<path d="M243.242,189.428c-1.46,2.672-1.005,5.594-0.594,8.169c0.125,0.743,0.249,1.495,0.317,2.231l0.035,0.387l0.24,0.288
		c1.302,1.627,3.004,2.329,4.499,2.963c0.848,0.36,1.66,0.69,2.376,1.172l0.322,0.2l0.365,0.005c0.042,0.01,0.091,0.01,0.118,0.01
		c3.548,0,6.925-1.634,9.046-4.376c2.103-2.693,2.776-6.166,1.879-9.521c-0.185-0.695-0.844-1.096-1.562-0.908
		c-0.676,0.188-1.081,0.881-0.909,1.557c0.696,2.633,0.192,5.224-1.433,7.304c-1.587,2.053-4.1,3.3-6.753,3.375
		c-0.818-0.482-1.645-0.849-2.452-1.178c-1.295-0.531-2.411-0.999-3.266-1.938c-0.082-0.646-0.179-1.308-0.29-1.97
		c-0.356-2.177-0.68-4.257,0.057-6.048c1.083-0.193,2.354-0.262,3.582-0.317l0.42,0.241c0.91,0.545,1.866,1.094,3.094,1.439
		c0.688,0.18,1.391-0.205,1.57-0.883c0.193-0.688-0.215-1.396-0.882-1.583c-0.901-0.248-1.668-0.696-2.479-1.172l-1.089-0.62
		l-0.688,0.027c-1.604,0.068-3.252,0.138-4.698,0.505l-0.551,0.144L243.242,189.428z"/>
	<path d="M77.038,130.551c5.389,16.6,11.5,35.357,19.688,52.543c-0.047,0.223-0.17,0.424-0.115,0.654
		c0.228,1.123-0.455,2.08-1.518,2.962c0.365-0.895,0.731-1.798,1.166-2.687c0.552-1.164-1.179-2.18-1.737-1.018
		c-0.902,1.885-1.486,3.973-2.598,5.75c-0.53,0.848-1.136,1.584-1.812,2.26c0.117-0.51,0.205-1.006,0.247-1.461
		c0.068-0.992-1.115-1.199-1.721-0.717c-2.474,1.937-4.687,4.25-6.209,7.026c-0.282,0.537-0.757,1.792-1.157,2.784
		c-0.502,0-0.99,0.323-0.99,0.964c0.005,0.317-0.015,0.688,0.021,1.034c-2.57,0.26-5.113,0.522-7.604,0.776
		c-2.44,0.255-4.928,0.449-7.463,0.655c-11.56,0.907-23.505,1.832-32.957,8.412l-0.379,0.269l-0.159,0.439
		c-0.827,2.231-0.123,4.252,0.482,6.036c0.241,0.688,0.475,1.377,0.614,2.079l0.178,1.021l1.014,0.179
		c5.325,0.965,10.92,1.695,16.747,2.189c2.033,0.973,4.093,1.764,6.353,2.068c0.027,0,0.05-0.015,0.076-0.015
		c11.359,3.846,22.376,8.66,33.888,12.057c0.212,0.061,0.398,0.042,0.571-0.027c7.117,4.355,13.268,10.292,19.688,16.465
		c7.447,7.179,15.175,14.509,24.649,19.413c0.021,0.095-0.048,0.18-0.021,0.276l0.153,0.467c-1.38-0.681-2.716-1.405-3.997-2.203
		c-1.122-0.698-2.106,1.034-1.026,1.736c1.942,1.273,3.935,2.473,5.946,3.638l0.206,0.612l1.28,0.273
		c0.042,0.008,0.07,0.014,0.091,0.022c5.628,3.153,11.463,5.964,17.368,8.562c-0.124-0.041-0.25-0.067-0.374-0.109
		c-0.978-0.275-1.833-0.696-2.54-1.192c-4.652-0.729-9.35-1.377-14.131-1.915c-0.73-0.096-1.28,0.414-1.336,1.075
		c-0.091,0.655,0.385,1.262,1.054,1.336c8.135,0.924,16.059,2.135,23.788,3.569c1.641,0.688,3.288,1.354,4.934,2.039
		c13.978,5.69,28.343,11.058,43.099,14.427c12.456,2.816,24.622,2.816,36.938,0.749c-0.124,0.305-0.083,0.669,0.221,0.972
		l2.989,2.99c0.164,1.171,0.364,2.356,0.628,3.52c0.157,0.677,0.763,1.125,1.438,1.125c0.111,0,0.207-0.008,0.316-0.035
		c0.571-0.132,0.964-0.578,1.09-1.095c0.322,0.302,0.668,0.619,1.025,0.99c0.917,0.903,2.308-0.467,1.446-1.391
		c1.577,0.729,3.218,1.35,4.911,1.887c-0.234,0.056-0.455,0.104-0.675,0.165l-0.386,0.099l-0.234,0.315
		c-4.512,5.641-7.328,15.714-3.666,23.235l0.208,0.442l0.482,0.173c13.324,4.449,27.5,8.582,40.763,8.582
		c11.634,0,20.84-3.307,27.404-9.809l0.282-0.282l0.056-0.4c0.37-2.537,0.531-5.099,0.594-7.684c0.646,0.387,1.268,0.808,1.83,1.331
		c0.449,0.393,0.988,0.346,1.435,0c1.187-0.949,2.632-0.4,4.016,0c0.117,2.212,0.765,4.354,2.232,6.27l0.323,0.435l0.539,0.131
		c12.742,2.921,26.549,4.465,39.918,4.465c12.252,0,23.729-1.254,34.106-3.748l0.466-0.124l0.31-0.351
		c2.604-2.909,2.555-6.562,2.504-9.771c-0.021-1.729-0.021-3.359,0.328-4.835c12.159-6.587,27.983-8.24,43.325-9.811
		c1.191-0.123,2.381-0.233,3.572-0.365c-0.771,0.435-0.617,1.854,0.483,1.882c3.67,0.082,7.29,0.543,10.915,0.991
		c-0.014,0.509,0.311,1.025,0.973,1.025H489.9c0.881,0,1.168-0.889,0.828-1.509c17.103,1.606,33.002,2.419,48.275,2.419
		c24.604,0,47.63-2.088,71.588-6.323c6.962-1.234,13.906-2.138,20.611-3.019c25.291-3.314,49.179-6.456,68.068-25.965
		c0.142-0.097,0.438-0.317,0.733-0.523c0.733-0.536,1.553-1.144,2.231-1.956l0.324-0.654c0.121-0.488,0.252-0.972,0.393-1.446
		c0.141-0.525,0.254-1.068,0.396-1.592c5.837-3.032,7.888-8.377,9.611-13.737c0.457-0.356,0.803-0.854,0.937-1.46
		c1.03-4.933-0.106-10.389-3.466-16.698c-0.353-0.664-0.964-1.033-1.636-1.198c-0.161-0.068-0.316-0.152-0.484-0.235
		c-8.469-20.501-22.074-48.017-44.414-63.444c-0.039-0.199-0.101-0.375-0.148-0.564c2.297,1.453,4.57,2.922,6.609,4.755
		c0.364,0.325,0.795,0.325,1.133,0.153c1.031,0.668,2.061,1.344,3.097,2.013c1.096,0.708,2.092-1.026,1.017-1.744
		c-2.283-1.528-4.539-3.069-6.68-4.712l-6.01-6.01c1.293,0.033,2.57,0.127,3.865,0.471c1.25,0.35,1.793-1.598,0.537-1.932
		c-2.242-0.601-4.281-0.642-6.568-0.707l-1.043-1.043c-0.648-0.647-1.758-0.035-1.737,0.733c-0.216-0.041-0.45-0.082-0.653-0.135
		c-0.07-0.097-0.141-0.188-0.203-0.279c-2.929-4.036-5.942-8.204-10.582-11.226c-0.27-0.169-0.586-0.146-0.89-0.155
		c-8.487-10.657-19.437-18.16-29.729-20.374c-0.075-0.125-0.075-0.271-0.184-0.373c-6.166-5.404-14.814-6.703-22.447-7.854
		l-3.098-0.479c-0.082-0.021-0.154,0.059-0.244,0.059c-0.185-0.059-0.396-0.135-0.617-0.207c-0.088-0.047-0.183-0.105-0.274-0.147
		c-0.136-0.077-0.272-0.104-0.406-0.114c-0.714-0.279-1.512-0.641-2.28-1.119c-0.049-0.043-0.096-0.06-0.148-0.102
		c-0.088-0.738-0.275-1.459-0.498-2.18c-0.91-0.182-1.809-0.356-2.712-0.525c0.319,0.762,0.587,1.534,0.733,2.323
		c-42.219,0.207-89.123,4.172-138.779,8.384c-48.932,4.154-99.52,8.444-147.182,9.092c-38.226,0.495-89.212-4.84-107.165-21.617
		c-12.689-11.861-20.322-31.125-28.409-51.517c-6.802-17.191-13.843-34.969-24.381-48.929
		c-12.257-16.248-33.914-13.699-56.837-10.986c-8.611,1.024-17.503,2.068-26.272,2.202l-0.497,0.007l-0.405,0.296
		c-2.604,1.89-2.084,7.012-1.938,8.022l0.108,0.424c0.118,0.258,0.16,0.634,0.223,0.944c-4.321,1.043-8.985,1.419-13.559,1.683
		c-6.812,0.39-13.84,0.807-19.751,3.769l-1.397,0.699l1.007,1.186c26.646,31.483,45.613,58.575,57.854,96.264L77.038,130.551z
		 M643.268,160.292c-0.861,0.177-1.72,0.373-2.477,0.703l-0.852-1.097c-0.926-1.193-1.608-2.074-2.342-2.872
		c-0.874-0.974-2.388-1.038-3.352-0.157c-0.041,0.045-0.079,0.094-0.121,0.141c-11.725-7.715-23.605-15.185-35.871-21.901
		c5.7,1.028,11.188,2.577,15.32,6.192c0.142,0.129,0.334,0.129,0.502,0.188c1.727,1.725,3.322,3.511,4.816,5.354
		c2.033,1.063,3.996,2.254,5.907,3.566c-1.942-2.842-4.078-5.607-6.476-8.245C627.009,144.873,635.996,151.411,643.268,160.292z
		 M648.826,166.367c-0.147,0.014-0.289,0.077-0.416,0.163c-1.771-1.194-3.549-2.379-5.319-3.57c0.465-0.106,0.947-0.192,1.433-0.247
		c0.015,0.028,0.015,0.047,0.035,0.061C646.174,163.822,647.555,165.035,648.826,166.367z M669.798,211.8
		c-0.133,0.276-0.288,0.552-0.344,0.855c-0.165,0.041-0.333,0.041-0.503,0.067c-0.247,1.344-0.832,2.646-1.697,3.789
		c1.059-0.041,2.122-0.158,3.165-0.404c1.233,2.024,2.294,4.132,3.374,6.393c0.451,0.922,0.93,1.859,1.387,2.789
		c-0.123,0.056-0.224,0.13-0.351,0.186c-1.495,0.684-3.151,1.477-4.656,2.749c-8.839-0.977-19.024-1.254-31.16-0.784
		c-2.228-2.632-5.735-3.267-9.114-3.583c-3.526-2.568-6.369-5.967-8.181-10.492c-0.176-0.447-0.558-0.653-0.946-0.667
		c-3.578-17.308-8.154-33.116-13.82-47.684c-0.986-1.271-1.588-2.597-1.859-3.896c-1.111-1.947-2.247-3.879-3.424-5.791
		c-0.993-1.615-1.268-3.388-1.018-5.08c-2.565-5.517-5.312-10.851-8.252-16.022c16.269,8.576,31.791,18.541,47.139,28.771
		c0.24,0.389,0.451,0.781,0.613,1.191c1.028,0.767,2.024,1.588,3.014,2.422c-0.221-0.516-0.411-1.041-0.6-1.588
		c2.672,1.783,5.338,3.574,8.012,5.373c2.115,2.119,4.227,4.24,6.349,6.354c0.981,1.259,2.024,2.513,3.177,3.74
		c-0.095,1.427,0.371,2.739,0.815,3.921c0.282,0.743,0.489,1.336,0.586,1.859c-0.162,0.091-0.28,0.234-0.413,0.346
		c-0.742-0.255-1.419-0.594-2.085-0.967c1.069,1.883,2.085,3.804,2.974,5.769c0.406,0.894,0.612,1.825,0.688,2.735
		C665.673,199.835,668.494,205.698,669.798,211.8z M664.201,231.324c-4.1,0.027-8.278-0.082-12.354-0.469
		C656.25,230.897,660.355,231.05,664.201,231.324z M686.033,247.348c-0.487-0.943-1.016-1.817-1.572-2.673
		c2.48,0.069,4.964,0.123,7.461,0.138c0.927,0.633,1.857,1.267,2.793,1.901c1.089,0.725,2.098-1.013,1.016-1.734
		c-0.061-0.055-0.141-0.096-0.203-0.153c0.304,0,0.601,0,0.896,0c1.346,1.248,2.598,2.592,3.702,4.039
		c-4.679,0.028-9.445,0-14.089-0.606C686.165,247.996,686.21,247.68,686.033,247.348z M692.543,242.801
		c-3.074-2.101-6.082-4.298-8.958-6.64c3.624,1.921,7.244,4.092,10.476,6.654C693.551,242.809,693.045,242.809,692.543,242.801z
		 M683.027,242.651c-2.865-3.747-6.394-6.767-10.271-9.557c1.418-0.047,2.814-0.089,4.168-0.144
		c3.762,3.631,7.839,6.804,12.062,9.822C686.999,242.747,685.008,242.706,683.027,242.651z M676.538,230.981
		c-1.044,0.041-2.111,0.083-3.19,0.123c0.958-0.684,2.061-1.199,3.225-1.709c0.466-0.221,0.931-0.441,1.406-0.669
		c0.412,0.172,0.844,0.353,1.295,0.353c0.482,0,0.969-0.153,1.433-0.353c1.306,0.571,2.532,1.261,3.724,2.026
		c-2.1,0.021-4.378,0.088-6.758,0.187C677.285,230.678,676.861,230.74,676.538,230.981z M705.281,241.825
		c-3.252-2.011-6.123-4.686-9.102-7.496c-4.025-3.81-8.253-7.627-13.65-9.968c-0.055-0.158-0.055-0.331-0.137-0.489
		c-0.793-1.461-1.506-2.962-2.226-4.438c-1.269-2.631-2.573-5.358-4.269-7.997c-0.236-0.38-0.554-0.676-0.901-0.931
		c-1.679-7.599-5.374-14.743-8.773-21.094l-1.088-2.025c-0.075-0.158-0.196-0.248-0.296-0.373c0.042-1.39-0.389-2.68-0.802-3.785
		c-0.072-0.2-0.12-0.361-0.193-0.558C684.158,197.319,697.029,222.272,705.281,241.825z M698.061,272.687
		c1.553-2.963,3.653-5.774,6.151-7.717h3.737c-1.34,3.451-3.084,6.359-6.463,8.13C700.234,273.059,699.124,272.908,698.061,272.687z
		 M484.352,311.419c-0.836-0.371-1.691-0.662-2.537-0.922c15.729-3.238,29.422-9.618,36.293-25.38h1.631
		c-0.014,2.067,0.33,4.67,2.646,2.507c0.343-0.331,0.634-0.66,0.901-0.984c0.08,0.132,0.176,0.234,0.311,0.339
		c0.585,0.426,7.055,5.097,7.055,1.485c0-0.22-0.049-0.433-0.097-0.625c4.802-0.925,9.62-1.868,14.474-2.832
		c41.248-8.185,83.756-16.609,124.75-8.846c-2.314,3.659-4.967,7.069-7.867,10.223c-3.334,0.388-6.684,0.703-10.043,0.965
		c3.216-3.595,6.453-7.155,9.84-10.58c0.917-0.925-0.512-2.357-1.426-1.434c-3.898,3.946-7.609,8.081-11.309,12.213
		c-3.542,0.255-7.096,0.478-10.65,0.669c3.328-3.747,6.61-7.536,9.451-11.656c0.74-1.081-1.016-2.081-1.742-1.02
		c-3.131,4.538-6.793,8.701-10.482,12.828c-5.197,0.282-10.4,0.572-15.583,0.965c2.256-4.184,4.212-8.531,5.763-13.014
		c0.432-1.24-1.515-1.765-1.938-0.546c-1.644,4.754-3.775,9.334-6.237,13.729c-5.084,0.405-10.158,0.929-15.201,1.662
		c-1.277,0.192-0.734,2.133,0.537,1.942c4.465-0.649,8.965-1.13,13.465-1.518c-0.598,1.007-1.226,2.011-1.859,2.99
		c-1.95,0.192-3.896,0.387-5.836,0.579c-1.284,0.123-1.297,2.134,0,2.011c1.723-0.164,3.447-0.331,5.171-0.511
		c0.377,0.525,1.271,0.739,1.735,0.014c0.043-0.046,0.088-0.117,0.121-0.191c4.612-0.442,9.211-0.867,13.826-1.254
		c-1.107,1.309-2.188,2.631-3.23,3.981c-11.076,1.702-22.215,2.274-33.459,0.014c-1.262-0.261-1.805,1.681-0.539,1.942
		c15.595,3.136,30.957,0.985,46.244-2.176c-0.795,0.84-1.588,1.674-2.397,2.493c-0.909,0.931,0.515,2.342,1.423,1.419
		c1.498-1.516,2.979-3.065,4.434-4.644c1.731-0.373,3.455-0.751,5.184-1.13c1.271-0.283,0.732-2.219-0.538-1.941
		c-0.767,0.172-1.528,0.343-2.297,0.51c0.507-0.561,1.022-1.111,1.53-1.668c2.787-0.178,5.58-0.318,8.373-0.441
		c-3.668,2.949-7.633,5.553-11.866,7.745c-1.147,0.604-0.134,2.341,1.017,1.742c5.109-2.652,9.82-5.904,14.109-9.625
		c2.072-0.076,4.132-0.136,6.193-0.192c-2.306,1.523-4.686,2.906-7.217,4.051c-1.178,0.537-0.154,2.274,1.016,1.75
		c3.492-1.6,6.697-3.651,9.8-5.854c1.262-0.029,2.524-0.056,3.79-0.056c1.306,0,1.306-2.028,0-2.015
		c-0.334,0-0.665,0.015-0.989,0.015c2.284-1.707,4.543-3.457,6.849-5.111c1.498-0.302,2.986-0.621,4.467-0.978
		c1.106-0.269,0.834-1.791-0.113-1.956c2.584-1.612,5.263-3.031,8.17-4.079c0.555-0.206,0.734-0.744,0.654-1.199
		c1.017-0.276,2.027-0.577,3.029-0.882c0.795-0.233,1.601-0.468,2.402-0.688c1.359,0.323,2.8,0.599,4.354,0.757
		c-0.037,0.138-0.059,0.277-0.1,0.422c-0.107,0.378-0.211,0.75-0.316,1.149c-0.391,0.399-0.883,0.758-1.406,1.144
		c-0.344,0.249-0.695,0.495-1.016,0.765c-18.236,18.808-41.574,21.874-66.285,25.111c-6.736,0.883-13.713,1.806-20.752,3.046
		c-40.301,7.122-77.994,8.107-125.195,3.259C484.771,311.699,484.629,311.515,484.352,311.419z M673.597,279.645
		c0.043,0.577,0.509,1.013,1.079,1.013h0.068l0.826-0.048c1.42-0.082,2.873-0.164,4.174-0.435l0.425-0.09l0.255-0.358
		c0.195-0.289,0.396-0.662,0.592-0.979c0.721,0.084,1.434,0.146,2.141,0.146c0.599,0,1.191-0.035,1.776-0.091
		c-3.04,1.501-5.877,3.349-8.636,5.305c-3.762,0.772-7.541,1.38-11.335,1.874c2.545-2.934,4.894-6.062,6.961-9.409
		c2.328,0.466,4.649,0.99,6.965,1.569c-1.044,0.166-2.202,0.233-3.438,0.303l-0.83,0.056
		C674.02,278.53,673.568,279.038,673.597,279.645z M662.977,288.243c3.203-0.372,6.4-0.84,9.582-1.377
		c-1.941,1.454-3.881,2.914-5.861,4.327c-2.273,0.025-4.558,0.074-6.838,0.149C660.936,290.337,661.971,289.309,662.977,288.243z
		 M656.722,291.465c-2.978,0.111-5.95,0.247-8.918,0.429c0.726-0.82,1.453-1.628,2.181-2.439c3.271-0.235,6.53-0.515,9.785-0.854
		C658.773,289.579,657.758,290.545,656.722,291.465z M642.998,294.208c-0.682,0.743-1.368,1.495-2.059,2.232
		c-3.901,0.84-7.803,1.619-11.709,2.28c1.016-1.249,2.053-2.502,3.11-3.741C635.882,294.704,639.438,294.443,642.998,294.208z
		 M631.386,293.052c-4.772,0.399-9.56,0.833-14.333,1.296c0.602-0.979,1.186-1.973,1.766-2.963
		c4.953-0.387,9.924-0.676,14.891-0.953C632.939,291.302,632.166,292.177,631.386,293.052z M634.227,292.824
		c0.754-0.855,1.516-1.689,2.27-2.543c3.541-0.192,7.074-0.392,10.607-0.62c-0.727,0.807-1.449,1.604-2.183,2.412
		C641.355,292.293,637.785,292.548,634.227,292.824z M484.816,252.535c3.903-0.158,7.811-0.31,11.713-0.447
		c0.371-0.331,0.754-0.647,1.144-0.924c0.074-0.07,0.124-0.158,0.196-0.22c1.252-0.028,2.404,0.331,3.595,0.971
		c0.835-0.028,1.668-0.063,2.508-0.091c5.677-0.17,8.261,4.521,7.779,8.909c0.481,0.564,0.967,1.123,1.467,1.66
		c2.386,2.576,4.587,5.07,5.431,8.473c-0.808,1.062-1.388,2.082-1.91,3.086c-0.178,0.333-0.373,0.683-0.573,1.034
		c-1.591,0.511-3.198,1.066-4.653,1.62l-1.285,0.475c-16.379,2.384-33.55,2.356-50.242,2.37c-3.453,0-6.906-0.013-10.36,0.014
		c-19.876,0.123-39.774,2.301-59.021,4.432c-25.412,2.789-51.662,5.69-77.267,3.603l-0.945-0.076l-0.438,0.849
		c-0.414,0.783-0.813,1.535-1.213,2.273c-7.405-1.916-15.438-2.315-23.231-2.688c-5.18-0.247-10.25-0.51-15.06-1.212
		c-6.44-1.542-12.469-3.748-18.146-6.708c-2.631-1.999-4.961-4.515-6.958-7.744c11.615,0.338,23.205,0.137,34.77-0.429
		c1.179-0.958,2.659-1.641,4.458-1.838c2.702-0.317,5.387-0.614,8.062-0.917c-11.52,0.826-23.072,1.322-34.653,1.336
		c12.201-0.965,24.111-2.266,35.706-3.597c20.888-2.328,40.777-4.573,59.818-4.499c-1.412,0.187-2.818,0.392-4.217,0.579
		c5.623-0.584,11.258-1.137,16.894-1.688c6.353-0.133,12.703-0.206,19.058-0.221c0.955,0,1.217-1.081,0.748-1.66
		c2.334-0.214,4.678-0.448,7.021-0.646c31.823-4.541,63.703-8.682,95.75-9.57c-0.543,0.51-0.853,1.164-0.944,1.86
		C488.191,251.482,486.527,252.006,484.816,252.535z M312.429,294.968c-12.794,1.858-25.571,3.857-38.421,5.193
		c-1.13,0.123-2.301,0.234-3.456,0.343C284.313,296.992,298.134,293.885,312.429,294.968z M315.032,293.188
		c-0.751-0.153-1.495-0.276-2.238-0.399c0.433-0.773,0.847-1.543,1.281-2.344c25.558,1.943,51.642-0.903,76.854-3.69
		c19.183-2.109,39.021-4.286,58.729-4.409c3.437-0.014,6.873-0.014,10.341-0.014c11.728,0.014,23.728,0,35.655-0.855
		c-19.405,4.32-39.532,5.827-59.276,6.711c-28.008,1.239-56.084,0.764-84.081,2.341c-12.264,0.69-24.457,2.241-36.609,3.97
		C315.853,293.975,315.674,293.306,315.032,293.188z M511.232,255.76c2.121,0.579,4.441,1.756,6.396,3.273
		c1.793,2.052,3.229,4.104,4.409,6.311c0.2,1.391-0.218,2.666-1.228,3.857c-1.166-3.473-3.436-6.063-5.722-8.53
		C513.629,259.088,512.336,257.488,511.232,255.76z M520.902,276.751l-1.332-0.91c0.055-0.116,0.115-0.22,0.174-0.329
		c0.552-1.02,1.017-1.91,1.759-2.825c0.112-0.138,0.082-0.316,0.147-0.481l0.364-0.291c0.009,0,0.009-0.013,0.009-0.013
		c-0.311,1.295-0.602,2.576-0.884,3.871c-0.45,1.771-0.889,3.543-1.332,5.312c-0.063,0.022-0.142,0.036-0.196,0.076
		c0.371-1.13,0.733-2.3,1.049-3.527L520.902,276.751z M522.165,280.361c0.084,0.324,0.159,0.641,0.241,0.965
		c0.142,0.584,0.289,1.171,0.436,1.75h-1.109c-0.026-0.208-0.061-0.414-0.115-0.606
		C521.805,281.768,521.988,281.065,522.165,280.361z M480.382,315.09c0.121-0.082,0.218-0.181,0.282-0.297
		c1.144,0.116,2.256,0.229,3.379,0.344c0.141,0.05,0.275,0.097,0.41,0.153h-0.586C482.71,315.261,481.553,315.191,480.382,315.09z
		 M472.688,312.051c0.738-0.103,1.479-0.22,2.213-0.338c-0.015,0.104-0.021,0.181-0.065,0.282c-0.035,0.132-0.035,0.228-0.035,0.346
		C474.096,312.236,473.39,312.135,472.688,312.051z M338.463,321.077l0.419-1.407c5.856-2.755,11.651-6.339,17.265-9.81
		c12.105-7.495,24.627-15.238,38.51-15.238c2.35,0,4.699,0.228,7.033,0.661c2.534,3.734,3.478,8.314,4.479,13.15
		c1.038,5.028,2.109,10.218,5.109,14.71c-0.369,1.755-0.334,3.567-0.31,5.329c0.041,2.867,0.069,5.36-1.44,7.332
		c-10.017,2.357-21.094,3.556-32.916,3.556c-12.936,0-26.306-1.462-38.672-4.258C335.404,331.237,337.016,325.843,338.463,321.077z
		 M261.817,317.294c1.004-0.26,2.011-0.496,3.023-0.75c0.379,0.206,0.737,0.426,1.116,0.62c0.694,0.366,1.26-0.042,1.413-0.592
		c0.937,0.239,1.88,0.467,2.851,0.703c1.269,0.287,1.792-1.635,0.539-1.938c-0.104-0.026-0.179-0.047-0.277-0.068
		c12.927-2.748,26.523-4.208,39.874-4.208c4.562,0,9.095,0.165,13.482,0.51c-0.09,3.087-0.019,6.198,0.049,9.244
		c0.034,1.71,0.048,3.445,0.069,5.175c-0.146-0.11-0.291-0.22-0.43-0.338c-0.977-0.869-2.397,0.551-1.426,1.419
		c0.579,0.515,1.206,0.937,1.854,1.323c-0.049,2.815-0.182,5.606-0.538,8.319c-6.078,5.863-14.62,8.841-25.436,8.841
		c-12.758,0-26.523-3.976-39.515-8.303C255.724,330.996,257.943,322.371,261.817,317.294z M258.785,308.951
		c0.109,0,0.261,0,0.407-0.03c1.604-0.197,3.035-0.631,3.961-1.982c1.273,0.793,2.714,1.352,4.437,1.462
		c0.854,0.123,1.501-0.573,1.55-1.377c0.048-0.802-0.572-1.49-1.385-1.544c-1.833-0.104-3.307-0.999-4.643-2.231
		c3.671-0.318,7.286-0.674,10.884-1.07c26.771-2.919,53.301-8.408,80.218-9.733c28.813-1.405,57.69-0.908,86.503-2.464
		c22.872-1.228,46.201-3.282,68.254-9.854c0.653-0.097,1.318-0.165,1.979-0.261l1.589-0.561c1.476-0.544,3.104-1.137,4.719-1.632
		c0.101,0,0.169,0.056,0.269,0.056c0.035,0,0.076-0.014,0.113-0.027l0.251,0.167c-5.973,21.665-22.739,28.105-42.643,31.198
		c-1.683-0.51-4.195-0.137-5.757,0.222c-0.389,0.102-0.6,0.357-0.678,0.662c-3.758,0.461-7.576,0.853-11.443,1.253
		c-0.245,0.02-0.506,0.048-0.754,0.075c-0.991,0-1.973,0-2.963,0c-0.364,0-0.611,0.172-0.774,0.392
		c-13.94,1.481-27.962,3.425-39.265,9.364c-2.476-3.893-3.486-8.398-4.467-13.199c-1.064-5.14-2.156-10.459-5.34-14.806
		l-0.337-0.482l-0.584-0.116c-2.726-0.564-5.489-0.841-8.233-0.841c-14.746,0-27.651,7.978-40.121,15.693
		c-5.732,3.547-11.67,7.22-17.555,9.935l-0.635,0.289l-0.799,2.708c-0.524,1.729-1.081,3.598-1.473,5.504
		c-1.214,0.819-3.31-1.149-4.632-0.497c-1.233,0.62,0.027,2.129,1.571,3.467c-0.675-0.035-1.35,0.067-2.088,0.481
		c-0.807-0.614-1.701-1.116-2.584-1.619c0.016-2.273-0.028-4.54-0.082-6.785c-0.056-2.84-0.062-5.759,0-8.632
		c1.192,0.129,2.314,0.316,3.692,0.694c0.132,0.028,0.276,0.055,0.405,0.055c0.669,0,1.289-0.438,1.481-1.116
		c0.236-0.812-0.261-1.658-1.061-1.888c-2.082-0.577-3.597-0.827-5.636-0.936c-0.316,0-0.563,0.157-0.813,0.304
		c-4.553-0.366-9.225-0.572-13.972-0.572c-15.143,0-30.579,1.84-45.04,5.298c-0.172-0.041-0.345-0.083-0.503-0.132
		c-1.882-1.397-3.789-2.822-5.448-4.464C259.143,309.172,258.962,309.049,258.785,308.951z M253.161,304.872
		c1.027-0.234,2.066-0.47,3.102-0.717c0.716-0.173,1.399-0.345,2.103-0.517c0.337-0.027,0.651-0.042,0.983-0.068
		c0.683,0.764,1.418,1.501,2.203,2.185c-1.072,1.715-4.559,0.426-5.034,2.514c-0.09,0.372-0.021,0.779,0.146,1.213
		c-1.118-0.647-2.228-1.275-3.352-1.867C253.23,306.691,253.161,305.768,253.161,304.872z M249.208,305.652
		c0.338-0.063,0.688-0.119,1.034-0.187c0.012,0.4,0.026,0.798,0.061,1.198C249.938,306.341,249.568,306.003,249.208,305.652z
		 M229.2,304.02c5.052,0.314,10.128,0.396,15.197,0.286c-3.976,0.579-7.936,0.953-11.919,1.076c-0.149-0.213-0.329-0.386-0.61-0.482
		C230.992,304.604,230.098,304.315,229.2,304.02z M172.76,290.818c7.666,1.64,15.121,3.458,22.312,5.4
		c0.026,0.372,0.222,0.745,0.662,0.916c6.942,2.682,14.155,4.449,21.494,5.58c2.741,0.861,5.414,1.73,8.087,2.584
		c-4.738-0.24-9.493-0.882-14.313-2.024C197.967,300.167,185.208,295.78,172.76,290.818z M58.877,223.154
		c3.521,0.164,7.095,0.263,10.726,0.263c0.007,0,0.007,0,0.007,0c0.676,0,1.343-0.026,2.025-0.026
		c-0.014,0.108-0.014,0.232,0.034,0.355c0.358,1.117,2.005,1.998,2.852,2.673c0.456,0.387,1.021,0.263,1.379-0.048
		c1.778,1.261,3.507,2.791,5.015,3.823c0.284,0.194,0.57,0.4,0.854,0.593c-0.047,0.282-0.019,0.564,0.09,0.814
		C74.176,228.872,66.598,225.82,58.877,223.154z M145.295,199.58c9.88,0,18.89,0.365,27.535,1.131l0.242,0.028l0.232-0.056
		c0.924-0.222,1.915-0.564,2.854-0.897c0.839-0.287,1.61-0.562,2.229-0.708c1.454,0.462,2.927,0.612,4.363,0.758
		c1.893,0.188,3.685,0.364,5.145,1.254c0.173,0.578,0.173,1.014,0,1.289c-0.776,1.196-4.491,1.314-6.074,1.355
		c-0.884,0.027-1.601,0.062-1.979,0.159c-29.693,6.999-70.357,16.568-110.225,16.568h-0.008c-12.174,0-23.657-0.931-34.121-2.763
		c-0.131-0.491-0.312-0.993-0.469-1.489c-0.455-1.342-0.875-2.522-0.634-3.645c8.729-5.849,20.082-6.744,31.069-7.605
		c2.555-0.199,5.07-0.391,7.529-0.655C94.844,202.005,120.284,199.565,145.295,199.58z M99.836,184.047
		c8.956-3.527,14.943-8.726,17.58-15.578c5.69-14.783-4.324-33.688-12.377-48.885c-1.069-1.998-2.102-3.931-3.025-5.751
		c-0.021-0.036-0.07-0.041-0.097-0.083c-1.481-6.624-4.368-12.931-7.158-19.041c-2.86-6.24-5.759-12.689-7.102-19.355
		c2.391-1.264,2.747-4.017,2.887-5.813c0.041-0.579,0.074-1.152,0.198-1.65l0.146-0.734l-0.386-0.62
		c-1.495-2.33-4.877-3.507-7.695-2.995l-1.164-0.577c-0.193-0.098-0.4-0.014-0.6-0.036c-3.472-4.726-6.47-9.778-9.35-14.701
		c-4.6-7.881-9.409-15.993-16.153-22.631c0-0.034,0.019-0.055,0.019-0.085c-0.115-0.768-0.267-1.712-0.625-2.639
		c-0.232-2.015,0.022-3.83,0.461-4.571c8.717-0.182,17.458-1.206,25.926-2.214c22.953-2.715,42.753-5.056,53.946,9.758
		c10.278,13.613,17.23,31.187,23.961,48.178c8.211,20.734,15.968,40.312,29.19,52.664c22.16,20.728,84.583,22.49,105.125,22.49
		c1.717,0,3.15-0.007,4.23-0.021c47.781-0.651,98.431-4.947,147.409-9.101c50.101-4.246,97.423-8.254,139.849-8.387
		c1.529,0.873,3.062,1.467,4.084,1.77c0.115,0.056,0.184,0.147,0.311,0.183c13.383,23.033,23.003,49.474,29.369,80.847
		c0.113,0.537,0.585,0.896,1.105,0.896c0.08,0,0.155,0,0.229-0.014c0.075-0.014,0.148-0.069,0.216-0.104
		c1.533,3.328,3.579,6.055,6.024,8.274c-1.219-0.15-2.369-0.352-3.354-0.738c-0.645-0.246-1.356,0.07-1.618,0.717
		c-0.24,0.655,0.078,1.371,0.719,1.619c1.978,0.773,4.32,0.953,6.582,1.145c0.496,0.04,0.981,0.082,1.459,0.138
		c2.176,1.363,4.524,2.494,7.041,3.391c0.149,0.394,0.459,0.689,0.828,0.908c0.224,0.538,0.506,1.041,0.816,1.545
		c1.236,0.069,2.462,0.137,3.688,0.22c-0.471-0.455-0.887-0.938-1.232-1.433c8.389,2.143,17.926,2.368,26.852,2.188
		c-0.107,0.18-0.187,0.359-0.297,0.544c0.135,0.016,0.272,0.021,0.406,0.035c0.629-0.026,1.264-0.048,1.896-0.068
		c3.804,2.632,7.283,5.43,10.177,8.846c-1.823-0.067-3.656-0.15-5.478-0.275c-1.898-2.418-4.254-4.298-7.555-5.469
		c-1.236-0.442-1.756,1.501-0.537,1.936c2.16,0.771,3.823,1.908,5.223,3.313c-2.746-0.221-5.492-0.511-8.219-0.882
		c-2.518-2.426-5.129-4.658-8.312-6.283c-1.158-0.593-2.181,1.145-1.017,1.737c2.301,1.178,4.268,2.673,6.139,4.324
		c-0.733,0.427-0.875,1.668,0.142,1.817c0.705,0.104,1.397,0.194,2.101,0.291c0.49,0.482,0.988,0.972,1.481,1.461
		c0.808,0.798,1.983-0.18,1.667-1.049c2.607,0.304,5.212,0.546,7.822,0.716c0.896,1.275,1.685,2.661,2.443,4.156
		c0.578,1.17,2.312,0.143,1.725-1.014c-0.512-1.06-1.077-2.039-1.663-2.983c1.884,0.105,3.755,0.188,5.634,0.255
		c0.76,1.049,1.469,2.149,2.113,3.335c-1.576-0.274-3.143-0.605-4.665-1.067c-1.25-0.377-1.777,1.564-0.536,1.937
		c7.266,2.199,15.104,2.08,22.667,2.053c0.31,0.497,0.606,0.994,0.882,1.517c0.62,1.143,2.355,0.125,1.743-1.02
		c-0.112-0.222-0.248-0.428-0.375-0.634c0.761-0.456,0.606-1.874-0.493-1.874c-0.229,0-0.462,0-0.679,0
		c-1.29-1.868-2.772-3.556-4.409-5.12c-0.033-0.475-0.35-0.93-0.96-0.93c-0.026,0-0.056,0-0.082,0
		c-4.586-4.072-10.146-7.205-15.508-9.927c-0.091-0.047-0.183-0.056-0.267-0.074c1.297-0.035,2.574-0.071,3.787-0.071
		c0.565,0,0.877-0.397,0.94-0.832c2.356,1.716,4.571,3.74,6.813,5.869c3.951,3.727,8.07,7.516,13.334,9.886
		c1.797,3.485,2.758,6.489,2.941,9.232c-6.717-0.141-13.286-1.876-20.007-2.005c-1.298-0.027-1.298,1.983,0,2.011
		c6.714,0.131,13.282,1.846,19.999,2.005c-0.034,0.358-0.064,0.716-0.12,1.062c-2.485,0.399-4.644,1.516-6.497,2.976h-3.324
		c-1.299,0-1.299,2.007,0,2.007h1.129c-2.457,2.595-4.164,5.6-5.123,7.583c-1.063,0.291-2.117,0.607-3.168,0.925
		c-3.73,1.122-7.223,2.148-10.959,1.652c-0.136-0.027-0.229,0.082-0.355,0.082c-44.801-11.6-91.367-2.377-136.367,6.559
		c-3.768,0.745-7.492,1.476-11.225,2.205c-0.092-0.47-0.514-0.896-1.01-0.896h-7.386c0.093-2.046-0.896-4.216-1.644-7.068
		c0.23-1.006,0.457-2.013,0.693-3.004c0.398,0.909,1.035,1.638,2.034,1.983c0.779,0.262,1.392-0.537,1.244-1.24
		c-0.586-2.796-1.349-5.207-2.321-7.413c0.043-1.045-0.121-2.133-0.545-3.229c-1.232-3.21-4.201-6.041-7.525-7.955
		c-0.127-0.112-0.262-0.188-0.387-0.216c-1.891-1.04-3.867-1.776-5.693-2.123c-0.17-0.302-0.256-0.652-0.565-0.854
		c-0.591-0.419-1.185-0.875-1.771-1.314c-4.153-1.025-8.4-1.722-12.5-3.031c-0.834-0.262-1.545-0.613-2.188-1.025
		c-0.154,0.123-0.316,0.241-0.473,0.37c-38.381,0.875-76.506,6.506-114.6,12.015c-11.002,0.118-21.998,0.421-32.985,0.87
		c-2.253,0.074-4.497,0.171-6.765,0.303c-32.069,1.53-64.068,4.424-95.943,8.288c-3.805-0.441-7.799-0.875-11.934-1.151
		c-0.041-0.056-0.097-0.116-0.165-0.157c-2.495-1.846-5.589-2.191-8.061-4.03c-1.055-0.771-2.046,0.972-1.021,1.729
		c1.394,1.047,2.99,1.604,4.562,2.231c-4.093-0.126-8.296-0.043-12.553,0.406c-0.843,0.083-1.445,0.845-1.364,1.674
		c0.055,0.46,0.316,0.821,0.688,1.055c-2.977,0.541-5.952,1.088-8.929,1.646c-14.521-1.391-29.294-1.555-43.471-1.44
		c3.501,0.984,7.014,1.792,10.555,2.493c1.213-0.792,2.791-1.171,4.727-0.948c9.21,1.039,18.373,2.196,27.626,2.658
		c3.712,0.2,7.632,0.329,11.566,0.118c0.212-0.497,0.489-0.984,0.806-1.421c-1.64-0.247-3.294-0.48-4.935-0.688
		c2.316-0.42,4.646-0.867,6.974-1.302c1.646-1.103,3.728-1.55,5.957-1.103c0.291-0.037,0.567-0.091,0.85-0.146
		c0.181,0.016,0.363,0,0.537,0.016c0.026,0.262,0.179,0.51,0.379,0.688c0.172,0.083,0.373,0.153,0.544,0.242
		c0,0,0.014,0.008,0.028,0.008c1.157,0.098,2.314,0.164,3.472,0.255c0.15-0.078,0.317-0.146,0.47-0.228
		c2.357-1.24,5.057-1.39,7.383-0.358c0.028,0.007,0.028,0.021,0.028,0.034c3.747,3.339,7.688,6.302,11.863,8.86
		c2.123,2.115,4.472,3.821,6.972,5.186c0.634-0.15,1.24-0.288,1.874-0.438c0.041-0.027,0.109-0.027,0.165-0.041
		c2.646,1.142,5.36,2.148,8.13,2.975c0.336,0.456,0.633,0.938,0.889,1.436c4.643,1.004,9.542,1.46,14.488,1.762
		c6.157,0.952,12.358,1.668,18.545,2.479c-13.399,0.938-26.455,4.7-39.592,8.006c-0.062-0.082-0.132-0.151-0.208-0.228
		c-0.054-0.089-0.13-0.145-0.197-0.233c-1.103,0.256-2.211,0.502-3.313,0.723c0.145,0.145,0.283,0.29,0.434,0.449
		c-1.446,0.102-2.895,0.197-4.341,0.274c-7.606,1.287-15.362,1.708-22.919,0.132c-3.382-0.194-6.759-0.49-10.107-0.926
		c-10.456-3.32-21.644-6.613-33.439-9.554c-6.446-0.766-12.881-1.632-19.233-2.854c-2.59-1.066-5.166-2.155-7.751-3.264
		c3.991,0.433,8.165,0.232,12.307-0.379c1.279-0.192,0.736-2.122-0.532-1.942c-5.744,0.854-11.669,0.88-16.933-0.703
		c0.164-0.446,0.083-0.979-0.413-1.213c-0.627-0.304-1.269-0.579-1.93-0.883c-0.839-0.448-1.626-0.95-2.396-1.487
		c-0.062-1.419,0.171-2.864,0.729-4.176c-2.053-0.303-4.119-0.613-6.144-0.972c1.515-0.015,3.002-0.027,4.539-0.047
		c0.71-0.008,1.426-0.015,2.143-0.021c0.813-1.384,1.997-2.515,3.486-3.17c-1.909,0.035-3.804,0.055-5.663,0.09
		c-3.141,0.042-6.2,0.07-9.272,0.098c-0.566-0.552-1.322-0.909-2.177-0.676c-0.068,0.028-0.09,0.111-0.15,0.138
		c-9.163-4.72-16.756-11.924-24.064-18.973c-8.777-8.46-17.849-17.2-29.665-21.465c0,0-0.006,0-0.021,0
		c-0.902-0.642-1.806-1.275-2.707-1.903c-1.902-1.279-4.004-3.202-6.174-4.414c38.525-0.772,77.187-9.852,105.756-16.569
		c0.262-0.062,0.759-0.062,1.379-0.082c2.727-0.089,6.859-0.221,8.473-2.72c0.785-1.208,0.826-2.708,0.109-4.423l-0.164-0.408
		l-0.331-0.247c-2.156-1.543-4.596-1.792-6.931-2.025c-1.468-0.145-2.825-0.291-4.058-0.729l-0.359-0.131l-0.393,0.055
		c-0.91,0.16-1.956,0.516-3.06,0.895c-0.784,0.276-1.597,0.565-2.355,0.752c-8.66-0.752-17.69-1.116-27.556-1.116
		c-21.412,0-43.092,1.785-62.623,3.722c0.345-0.78,0.559-1.737,0.854-2.328c0.33-0.634,0.703-1.24,1.081-1.833
		c0.234,0.233,0.579,0.385,0.964,0.33c0.916-0.165,1.696-0.634,2.344-1.287c1.888-1.151,3.656-2.543,4.961-4.335
		c0.26,0.18,0.577,0.275,0.901,0.275c0.303,0,0.6-0.067,0.875-0.233C96.539,189.714,99.914,187.579,99.836,184.047z
		 M242.236,272.011c0.552,0.028,1.121,0.069,1.679,0.083c0.415,0.773,0.849,1.503,1.298,2.206
		C244.206,273.569,243.214,272.805,242.236,272.011z M87.065,68.028c-0.048,0.405-0.083,0.811-0.124,1.241
		c-0.15,2.181-0.364,2.801-1.04,3.026c-0.365-0.26-0.725-0.577-1.095-0.798c-0.476-1.333-0.747-2.8-0.938-4.378
		C84.938,67.034,86.259,67.289,87.065,68.028z M78.695,127.711C66.486,90.13,47.723,63.042,21.413,31.839
		c5.153-2.149,11.112-2.497,17.395-2.855c4.911-0.283,9.97-0.606,14.701-1.851c0.056,0.025,0.123,0.025,0.186,0.038
		c6.593,6.432,11.146,14.137,15.915,22.304c2.887,4.953,5.932,10.021,9.425,14.823c-0.016,0.012,0,0.029-0.016,0.043
		c-2.087,1.134-4.425,0.883-7.082,0.507c-2.148-0.316-4.396-0.64-6.668-0.169c-0.688,0.135-1.136,0.802-0.984,1.495
		c0.149,0.688,0.817,1.123,1.495,0.981c1.83-0.367,3.761-0.098,5.807,0.196c1.343,0.2,2.708,0.396,4.071,0.396
		c1.563,0,3.1-0.267,4.573-1.095l0.889,0.445c0.256,2.131,0.621,4.077,1.31,5.848l0.194,0.51l0.48,0.23
		c0.401,0.192,0.848,0.58,1.263,0.896c0.124,0.474,0.428,0.819,0.812,1.067c1.393,7.017,4.391,13.686,7.331,20.134
		c2.521,5.555,5.104,11.284,6.612,17.168c-3.423-0.501-7.026-0.897-10.732-0.647c-0.723,0.041-1.255,0.653-1.206,1.367
		c0.034,0.712,0.835,1.277,1.356,1.217c3.962-0.255,7.76,0.211,11.375,0.768c0.853,1.678,1.776,3.406,2.734,5.226
		c7.793,14.7,17.506,33.003,12.257,46.626c-2.393,6.227-7.76,10.818-16.169,14.094c-8.033-16.939-14.074-35.473-19.399-51.883
		L78.695,127.711z"/>
	<path d="M634.845,287.112c1.298,0,1.298-2.011,0-2.011C633.54,285.102,633.546,287.112,634.845,287.112z"/>
</g>
</svg>
